<svg width="73" height="12" viewBox="0 0 73 12" fill="none" xmlns="http://www.w3.org/2000/svg">
<path d="M11 12H8.24L6.125 7.89H2.45V11.985H0.0350001V-1.78814e-07H8.57L10.355 1.575V5.175L8.555 7.215L11 12ZM2.45 2.43V5.475H6.935L7.94 4.32V2.715L7.58 2.43H2.45ZM12.325 12V-1.78814e-07H14.74V12H12.325ZM20.0325 12L16.0725 -1.78814e-07H18.4725L21.2925 8.55H21.3675L24.4275 -1.78814e-07H26.8425L22.6575 12H20.0325ZM35.2573 12L34.1473 9.06H29.5873L28.5523 12H26.0623L30.3373 -1.78814e-07H33.1123L37.7323 12H35.2573ZM30.4423 6.66H33.2323L31.9123 3.18H31.6723L30.4423 6.66Z" fill="white"/>
<path d="M41.4584 9.675H48.1784V12H39.0584V-1.78814e-07H41.4584V9.675ZM60.4234 7.545V9.99H58.8934V12H56.4634V9.99H50.0734V7.2L55.4284 -1.78814e-07H58.2484L52.9384 7.29V7.545H56.4634V5.46H58.8934V7.545H60.4234ZM72.8313 -1.78814e-07V2.685L65.7513 9.57H72.8313V12H62.4813V9.255L69.5463 2.43H62.4813V-1.78814e-07H72.8313Z" fill="#279BBB"/>
</svg>
